<svg width="24" height="24" viewBox="0 0 24 24" fill="none" xmlns="http://www.w3.org/2000/svg">
<g clip-path="url(#clip0_2492_17701)">
<path d="M12.3652 15.1437C12.3652 13.1724 11.486 11.7153 9.66971 11.1692C10.9949 10.4961 11.6861 9.47637 11.6861 7.8902C11.6861 4.76268 9.49368 4 6.96423 4H0V19.7027H7.15926C9.84374 19.7027 12.3652 18.3341 12.3652 15.1437ZM3.24657 6.68058H6.29311C7.46432 6.68058 8.51851 7.03045 8.51851 8.47475C8.51851 9.8081 7.69836 10.3446 6.53816 10.3446H3.24657V6.68058ZM3.24557 17.036V12.7116H6.7842C8.21345 12.7116 9.11761 13.3452 9.11761 14.9538C9.11761 16.54 8.03842 17.036 6.71719 17.036H3.24557Z" fill="#787A80"/>
<path d="M18.7993 20C21.3537 20 23.008 18.7765 23.8041 16.1759H21.2117C20.9326 17.1466 19.7824 17.6597 18.8903 17.6597C17.169 17.6597 16.2648 16.5877 16.2648 14.7658H23.9792C24.2232 11.1198 22.3189 8.01257 18.7983 8.01257C15.5387 8.01257 13.3263 10.6174 13.3263 14.0297C13.3263 17.5711 15.4227 20 18.7993 20ZM18.7073 10.3721C20.1825 10.3721 20.9246 11.2937 21.0487 12.8009H16.2688C16.3658 11.3065 17.299 10.3721 18.7073 10.3721Z" fill="#787A80"/>
<path d="M15.6701 4.82507H21.6591V6.37177H15.6701V4.82507Z" fill="#787A80"/>
</g>
<defs>
<clipPath id="clip0_2492_17701">
<rect width="24" height="24" fill="white"/>
</clipPath>
</defs>
</svg>
