<svg width="16" height="16" viewBox="0 0 16 16" fill="none" xmlns="http://www.w3.org/2000/svg">
<path fill-rule="evenodd" clip-rule="evenodd" d="M8.00006 2.16634C6.71139 2.16634 5.66673 3.21101 5.66673 4.49967C5.66673 5.78834 6.71139 6.83301 8.00006 6.83301C9.28872 6.83301 10.3334 5.78834 10.3334 4.49967C10.3334 3.21101 9.28872 2.16634 8.00006 2.16634ZM4.33339 4.49967C4.33339 2.47463 5.97501 0.833008 8.00006 0.833008C10.0251 0.833008 11.6667 2.47463 11.6667 4.49967C11.6667 6.52472 10.0251 8.16634 8.00006 8.16634C5.97501 8.16634 4.33339 6.52472 4.33339 4.49967Z" fill="#FF3F3A"/>
<path fill-rule="evenodd" clip-rule="evenodd" d="M4.06943 10.1663C3.60722 10.1663 3.24595 10.3914 3.0993 10.7148C2.89632 11.1623 2.71252 11.6951 2.66915 12.2005C2.64976 12.4264 2.74395 12.5928 2.87374 12.6735C3.55985 13.0997 5.14965 13.833 8.00006 13.833C10.8505 13.833 12.4403 13.0997 13.1264 12.6735C13.2562 12.5928 13.3504 12.4264 13.331 12.2005C13.2876 11.6951 13.1038 11.1623 12.9008 10.7148C12.7542 10.3914 12.3929 10.1663 11.9307 10.1663H4.06943ZM1.88501 10.164C2.29031 9.27039 3.19533 8.83301 4.06943 8.83301H11.9307C12.8048 8.83301 13.7098 9.27039 14.1151 10.164C14.3479 10.6773 14.5977 11.3673 14.6594 12.0864C14.7156 12.7413 14.4435 13.4249 13.83 13.8061C12.9276 14.3666 11.0931 15.1663 8.00006 15.1663C4.90699 15.1663 3.07253 14.3666 2.17017 13.8061C1.55666 13.4249 1.2845 12.7413 1.3407 12.0864C1.40242 11.3673 1.65222 10.6773 1.88501 10.164Z" fill="#FF3F3A"/>
</svg>
