<svg width="20" height="20" viewBox="0 0 20 20" fill="none" xmlns="http://www.w3.org/2000/svg">
<path fill-rule="evenodd" clip-rule="evenodd" d="M10.0001 2.70866C8.38929 2.70866 7.08345 4.0145 7.08345 5.62533C7.08345 7.23616 8.38929 8.54199 10.0001 8.54199C11.6109 8.54199 12.9168 7.23616 12.9168 5.62533C12.9168 4.0145 11.6109 2.70866 10.0001 2.70866ZM5.41678 5.62533C5.41678 3.09402 7.46881 1.04199 10.0001 1.04199C12.5314 1.04199 14.5835 3.09402 14.5835 5.62533C14.5835 8.15663 12.5314 10.2087 10.0001 10.2087C7.46881 10.2087 5.41678 8.15663 5.41678 5.62533Z" fill="#424551"/>
<path fill-rule="evenodd" clip-rule="evenodd" d="M5.08684 12.7087C4.50907 12.7087 4.05748 12.99 3.87417 13.3942C3.62045 13.9536 3.3907 14.6196 3.33649 15.2513C3.31225 15.5337 3.42999 15.7418 3.59222 15.8426C4.44985 16.3753 6.43711 17.292 10.0001 17.292C13.5631 17.292 15.5504 16.3753 16.408 15.8426C16.5702 15.7418 16.688 15.5337 16.6637 15.2513C16.6095 14.6196 16.3798 13.9536 16.1261 13.3942C15.9428 12.99 15.4912 12.7087 14.9134 12.7087H5.08684ZM2.35631 12.7058C2.86293 11.5887 3.99421 11.042 5.08684 11.042H14.9134C16.006 11.042 17.1373 11.5887 17.6439 12.7058C17.9349 13.3474 18.2472 14.2099 18.3243 15.1088C18.3946 15.9273 18.0544 16.7819 17.2875 17.2583C16.1595 17.959 13.8664 18.9587 10.0001 18.9587C6.13379 18.9587 3.8407 17.959 2.71275 17.2583C1.94587 16.7819 1.60567 15.9273 1.67592 15.1088C1.75307 14.2099 2.06532 13.3474 2.35631 12.7058Z" fill="#424551"/>
</svg>
