<svg width="16" height="16" viewBox="0 0 16 16" fill="none" xmlns="http://www.w3.org/2000/svg">
<path fill-rule="evenodd" clip-rule="evenodd" d="M5.33301 8.99967C5.33301 8.63148 5.63148 8.33301 5.99967 8.33301H9.99967C10.3679 8.33301 10.6663 8.63148 10.6663 8.99967C10.6663 9.36786 10.3679 9.66634 9.99967 9.66634H5.99967C5.63148 9.66634 5.33301 9.36786 5.33301 8.99967Z" fill="#424551"/>
<path fill-rule="evenodd" clip-rule="evenodd" d="M5.33301 11.4997C5.33301 11.1315 5.63148 10.833 5.99967 10.833H7.99967C8.36786 10.833 8.66634 11.1315 8.66634 11.4997C8.66634 11.8679 8.36786 12.1663 7.99967 12.1663H5.99967C5.63148 12.1663 5.33301 11.8679 5.33301 11.4997Z" fill="#424551"/>
<path fill-rule="evenodd" clip-rule="evenodd" d="M6.02829 1.02827C6.15331 0.903246 6.32288 0.833008 6.49969 0.833008H10.9997C12.4725 0.833008 13.6664 2.02692 13.6664 3.49967L13.6664 12.4997C13.6664 13.9724 12.4725 15.1663 10.9997 15.1663H4.99967C3.52691 15.1663 2.333 13.9724 2.33301 12.4997L2.33302 4.99967C2.33302 4.82286 2.40326 4.65329 2.52829 4.52827L6.02829 1.02827ZM6.333 2.60917V4.83301H4.10917L6.333 2.60917ZM3.66636 6.16634L3.66634 12.4997C3.66634 13.2361 4.26329 13.833 4.99967 13.833H10.9997C11.7361 13.833 12.333 13.2361 12.333 12.4997L12.333 3.49967C12.333 2.76329 11.7361 2.16634 10.9997 2.16634H7.66634V5.49967C7.66634 5.86786 7.36786 6.16634 6.99967 6.16634H3.66636Z" fill="#424551"/>
</svg>
