<svg width="20" height="20" viewBox="0 0 20 20" fill="none" xmlns="http://www.w3.org/2000/svg">
<path d="M18.3174 6.56704C18.2783 5.68147 18.1351 5.07266 17.93 4.54511C17.7183 3.98513 17.3927 3.48378 16.9662 3.06701C16.5494 2.64375 16.0447 2.31485 15.4913 2.10653C14.9607 1.90139 14.355 1.75818 13.4695 1.71914C12.5773 1.67679 12.294 1.66699 10.0312 1.66699C7.76843 1.66699 7.4852 1.67679 6.59633 1.71583C5.71076 1.75487 5.10195 1.89821 4.57453 2.10322C4.01442 2.31485 3.51307 2.64044 3.0963 3.06701C2.67304 3.48378 2.34428 3.98843 2.13583 4.54193C1.93068 5.07266 1.78748 5.67817 1.74843 6.56373C1.70608 7.45591 1.69629 7.73914 1.69629 10.002C1.69629 12.2648 1.70608 12.548 1.74513 13.4369C1.78417 14.3224 1.9275 14.9312 2.13265 15.4588C2.34428 16.0188 2.67304 16.5201 3.0963 16.9369C3.51307 17.3602 4.01773 17.6891 4.57122 17.8974C5.10195 18.1025 5.70746 18.2457 6.59315 18.2848C7.48189 18.3239 7.76525 18.3336 10.0281 18.3336C12.2909 18.3336 12.5741 18.3239 13.463 18.2848C14.3485 18.2457 14.9573 18.1025 15.4848 17.8974C16.6049 17.4643 17.4904 16.5788 17.9235 15.4588C18.1285 14.9281 18.2718 14.3224 18.3109 13.4369C18.3499 12.548 18.3597 12.2648 18.3597 10.002C18.3597 7.73914 18.3564 7.45591 18.3174 6.56704ZM16.8165 13.3718C16.7806 14.1857 16.6439 14.6253 16.5299 14.9183C16.2499 15.6444 15.6736 16.2206 14.9476 16.5007C14.6545 16.6146 14.2118 16.7513 13.401 16.7871C12.522 16.8263 12.2583 16.8359 10.0345 16.8359C7.81078 16.8359 7.54383 16.8263 6.66793 16.7871C5.85397 16.7513 5.41443 16.6146 5.12141 16.5007C4.76009 16.3671 4.43119 16.1555 4.16424 15.8788C3.88749 15.6085 3.67586 15.2829 3.54232 14.9216C3.42837 14.6286 3.29165 14.1857 3.25591 13.3751C3.21674 12.496 3.20707 12.2322 3.20707 10.0084C3.20707 7.78467 3.21674 7.51772 3.25591 6.64195C3.29165 5.82799 3.42837 5.38845 3.54232 5.09542C3.67586 4.73397 3.88749 4.40521 4.16755 4.13813C4.43768 3.86138 4.76326 3.64975 5.12471 3.51634C5.41774 3.40238 5.86058 3.26566 6.67124 3.2298C7.55031 3.19075 7.81409 3.18096 10.0377 3.18096C12.2648 3.18096 12.5284 3.19075 13.4043 3.2298C14.2183 3.26566 14.6578 3.40238 14.9509 3.51634C15.3122 3.64975 15.6411 3.86138 15.908 4.13813C16.1848 4.40839 16.3964 4.73397 16.5299 5.09542C16.6439 5.38845 16.7806 5.83117 16.8165 6.64195C16.8555 7.52102 16.8653 7.78467 16.8653 10.0084C16.8653 12.2322 16.8555 12.4927 16.8165 13.3718Z" fill="#787A80"/>
<path d="M10.0312 5.72052C7.66757 5.72052 5.7498 7.63816 5.7498 10.002C5.7498 12.3658 7.66757 14.2834 10.0312 14.2834C12.395 14.2834 14.3127 12.3658 14.3127 10.002C14.3127 7.63816 12.395 5.72052 10.0312 5.72052ZM10.0312 12.7792C8.49781 12.7792 7.25398 11.5355 7.25398 10.002C7.25398 8.4684 8.49781 7.22469 10.0312 7.22469C11.5648 7.22469 12.8085 8.4684 12.8085 10.002C12.8085 11.5355 11.5648 12.7792 10.0312 12.7792Z" fill="#787A80"/>
<path d="M15.4816 5.55124C15.4816 6.10321 15.0341 6.55076 14.482 6.55076C13.93 6.55076 13.4825 6.10321 13.4825 5.55124C13.4825 4.99915 13.93 4.55172 14.482 4.55172C15.0341 4.55172 15.4816 4.99915 15.4816 5.55124Z" fill="#787A80"/>
</svg>
