<svg width="24" height="24" viewBox="0 0 24 24" fill="none" xmlns="http://www.w3.org/2000/svg">
<path fill-rule="evenodd" clip-rule="evenodd" d="M12 7.75C10.8954 7.75 10 8.64543 10 9.75C10 10.8546 10.8954 11.75 12 11.75C13.1046 11.75 14 10.8546 14 9.75C14 8.64543 13.1046 7.75 12 7.75ZM8 9.75C8 7.54086 9.79086 5.75 12 5.75C14.2091 5.75 16 7.54086 16 9.75C16 11.9591 14.2091 13.75 12 13.75C9.79086 13.75 8 11.9591 8 9.75Z" fill="#FF3F3A"/>
<path fill-rule="evenodd" clip-rule="evenodd" d="M12 3.25C8.38046 3.25 5.5 6.08606 5.5 9.51923C5.5 12.318 7.18201 15.1448 9.02064 17.3682C9.92325 18.4597 10.8284 19.3639 11.5085 19.9951C11.6904 20.164 11.8557 20.3129 12 20.4402C12.1443 20.3129 12.3096 20.164 12.4915 19.9951C13.1716 19.3639 14.0768 18.4597 14.9794 17.3682C16.818 15.1448 18.5 12.318 18.5 9.51923C18.5 6.08606 15.6195 3.25 12 3.25ZM12 21.75C11.3812 22.5355 11.3809 22.5353 11.3807 22.5351L11.3782 22.5332L11.3725 22.5287L11.3531 22.5132C11.3367 22.5 11.3134 22.4812 11.2836 22.4569C11.224 22.4083 11.1386 22.3377 11.031 22.2465C10.8158 22.064 10.5115 21.7986 10.1478 21.4609C9.42158 20.7868 8.45175 19.8187 7.47936 18.6428C5.56799 16.3314 3.5 13.0428 3.5 9.51923C3.5 4.92303 7.33527 1.25 12 1.25C16.6647 1.25 20.5 4.92303 20.5 9.51923C20.5 13.0428 18.432 16.3314 16.5206 18.6428C15.5482 19.8187 14.5784 20.7868 13.8522 21.4609C13.4885 21.7986 13.1842 22.064 12.969 22.2465C12.8614 22.3377 12.776 22.4083 12.7164 22.4569C12.6866 22.4812 12.6633 22.5 12.6469 22.5132L12.6275 22.5287L12.6218 22.5332L12.62 22.5346C12.6197 22.5348 12.6188 22.5355 12 21.75ZM12 21.75L12.6188 22.5355C12.2558 22.8215 11.7437 22.8211 11.3807 22.5351L12 21.75Z" fill="#FF3F3A"/>
</svg>
